<svg id="wave" style="transform:rotate(180deg); transition: 0.3s" viewBox="0 0 1440 180" version="1.1" xmlns="http://www.w3.org/2000/svg"><defs><linearGradient id="sw-gradient-0" x1="0" x2="0" y1="1" y2="0"><stop stop-color="rgba(102, 156, 253, 1)" offset="0%"></stop><stop stop-color="rgba(0, 98.753, 253.043, 1)" offset="100%"></stop></linearGradient></defs><path style="transform:translate(0, 0px); opacity:1" fill="url(#sw-gradient-0)" d="M0,18L120,42C240,66,480,114,720,120C960,126,1200,90,1440,78C1680,66,1920,78,2160,87C2400,96,2640,102,2880,96C3120,90,3360,72,3600,66C3840,60,4080,66,4320,57C4560,48,4800,24,5040,15C5280,6,5520,12,5760,18C6000,24,6240,30,6480,42C6720,54,6960,72,7200,78C7440,84,7680,78,7920,78C8160,78,8400,84,8640,99C8880,114,9120,138,9360,147C9600,156,9840,150,10080,144C10320,138,10560,132,10800,132C11040,132,11280,138,11520,117C11760,96,12000,48,12240,42C12480,36,12720,72,12960,87C13200,102,13440,96,13680,99C13920,102,14160,114,14400,114C14640,114,14880,102,15120,84C15360,66,15600,42,15840,48C16080,54,16320,90,16560,111C16800,132,17040,138,17160,141L17280,144L17280,180L17160,180C17040,180,16800,180,16560,180C16320,180,16080,180,15840,180C15600,180,15360,180,15120,180C14880,180,14640,180,14400,180C14160,180,13920,180,13680,180C13440,180,13200,180,12960,180C12720,180,12480,180,12240,180C12000,180,11760,180,11520,180C11280,180,11040,180,10800,180C10560,180,10320,180,10080,180C9840,180,9600,180,9360,180C9120,180,8880,180,8640,180C8400,180,8160,180,7920,180C7680,180,7440,180,7200,180C6960,180,6720,180,6480,180C6240,180,6000,180,5760,180C5520,180,5280,180,5040,180C4800,180,4560,180,4320,180C4080,180,3840,180,3600,180C3360,180,3120,180,2880,180C2640,180,2400,180,2160,180C1920,180,1680,180,1440,180C1200,180,960,180,720,180C480,180,240,180,120,180L0,180Z"></path></svg>